<svg xmlns="http://www.w3.org/2000/svg" version="1.1" xmlns:xlink="http://www.w3.org/1999/xlink" xmlns:svgjs="http://svgjs.dev/svgjs" width="1000" height="287" viewBox="0 0 1000 287"><g transform="matrix(1,0,0,1,-0.6060532473769058,0.2581997367875033)"><svg viewBox="0 0 396 114" data-background-color="#ffffff" preserveAspectRatio="xMidYMid meet" height="287" width="1000" xmlns="http://www.w3.org/2000/svg" xmlns:xlink="http://www.w3.org/1999/xlink"><defs></defs><g id="tight-bounds" transform="matrix(1,0,0,1,0.23999714287606366,-0.1025601741943376)"><svg viewBox="0 0 395.52 114.20512034838866" height="114.20512034838866" width="395.52"><g><svg viewBox="0 0 395.52 114.20512034838866" height="114.20512034838866" width="395.52"><g transform="matrix(1,0,0,1,0,70.58334605750152)"><svg viewBox="0 0 395.52 43.621774290887146" height="43.621774290887146" width="395.52"><g><svg viewBox="0 0 395.52 43.621774290887146" height="43.621774290887146" width="395.52"><g><svg viewBox="0 0 395.52 43.621774290887146" height="43.621774290887146" width="395.52"><g transform="matrix(1,0,0,1,0,0)"><svg width="395.52" viewBox="2.700000047683716 -35.650001525878906 331.3699951171875 36.55000305175781" height="43.621774290887146" data-palette-color="#7c4e29"><path d="M2.7-34.75L11.95-34.75 11.95 0 2.7 0 2.7-34.75ZM34.9-34.75L44.35-34.75 35.15 0 23.35 0 13.7-34.75 23.45-34.75 29.4-6.75 34.9-34.75ZM74.15 0L64.34 0 62.8-7.1 53.6-7.1 52.05 0 42.45 0 52.75-34.75 63.85-34.75 74.15 0ZM58.2-28.15L55.05-13.7 61.34-13.7 58.2-28.15ZM94.49 0L87.69-12.8 85.14-12.8 85.14 0 75.89 0 75.89-34.75 87.94-34.75Q95.29-34.75 98.92-32.1 102.54-29.45 102.54-23.95L102.54-23.95Q102.54-20.65 101.02-18.45 99.49-16.25 96.14-14.5L96.14-14.5 104.79 0 94.49 0ZM85.14-28.3L85.14-19.1 88.24-19.1Q93.04-19.1 93.04-23.95L93.04-23.95Q93.04-26.2 91.72-27.25 90.39-28.3 87.74-28.3L87.74-28.3 85.14-28.3ZM134.34-34.75L134.34 0 122.69 0 113.89-26.15 114.04-25.1Q114.54-21.65 114.82-18.63 115.09-15.6 115.09-11.75L115.09-11.75 115.09 0 106.89 0 106.89-34.75 118.29-34.75 127.39-8.5Q126.79-12.25 126.47-15.25 126.14-18.25 126.14-22.15L126.14-22.15 126.14-34.75 134.34-34.75ZM167.79 0L157.99 0 156.44-7.1 147.24-7.1 145.69 0 136.09 0 146.39-34.75 157.49-34.75 167.79 0ZM151.84-28.15L148.69-13.7 154.99-13.7 151.84-28.15ZM196.63-35.65Q203.58-35.65 208.58-31.25L208.58-31.25 204.03-26.5Q202.13-27.85 200.61-28.48 199.08-29.1 197.13-29.1L197.13-29.1Q193.38-29.1 191.26-26.2 189.13-23.3 189.13-17.35L189.13-17.35Q189.13-13 189.83-10.48 190.53-7.95 191.96-6.85 193.38-5.75 195.63-5.75L195.63-5.75Q197.88-5.75 199.73-6.7L199.73-6.7 199.73-13.85 195.78-13.85 194.88-20.2 208.68-20.2 208.68-2.9Q205.98-1.1 202.58-0.1 199.18 0.9 195.88 0.9L195.88 0.9Q179.58 0.9 179.58-17.4L179.58-17.4Q179.58-23.1 181.81-27.23 184.03-31.35 187.88-33.5 191.73-35.65 196.63-35.65L196.63-35.65ZM241.43 0L231.63 0 230.08-7.1 220.88-7.1 219.33 0 209.73 0 220.03-34.75 231.13-34.75 241.43 0ZM225.48-28.15L222.33-13.7 228.63-13.7 225.48-28.15ZM276.13-34.75L278.73 0 269.63 0 269.18-12.95 269.13-15.1Q269.03-18.1 269.03-19.65L269.03-19.65Q269.03-23.4 269.33-27.15L269.33-27.15 264.58-3.6 255.83-3.6 250.78-27.15Q251.23-21.3 251.23-16.85L251.23-16.85Q251.23-14.3 251.18-12.95L251.18-12.95 250.78 0 241.68 0 244.23-34.75 255.73-34.75 260.38-11.7 264.58-34.75 276.13-34.75ZM282.63-34.75L304.68-34.75 303.73-28.2 291.88-28.2 291.88-20.8 302.23-20.8 302.23-14.45 291.88-14.45 291.88-6.55 304.53-6.55 304.53 0 282.63 0 282.63-34.75ZM320.77-35.65Q324.72-35.65 327.75-34.5 330.77-33.35 333.17-31.05L333.17-31.05 329.02-26.15Q325.42-29 321.47-29L321.47-29Q319.42-29 318.35-28.23 317.27-27.45 317.27-26.05L317.27-26.05Q317.27-25.05 317.82-24.4 318.37-23.75 319.67-23.15 320.97-22.55 323.77-21.65L323.77-21.65Q329.12-19.95 331.6-17.38 334.07-14.8 334.07-10.25L334.07-10.25Q334.07-6.95 332.37-4.42 330.67-1.9 327.45-0.5 324.22 0.9 319.87 0.9L319.87 0.9Q311.57 0.9 306.32-4.15L306.32-4.15 310.87-9.2Q315.02-5.8 319.52-5.8L319.52-5.8Q321.87-5.8 323.17-6.83 324.47-7.85 324.47-9.55L324.47-9.55Q324.47-10.75 323.97-11.53 323.47-12.3 322.2-12.93 320.92-13.55 318.47-14.3L318.47-14.3Q312.57-16.15 310.17-18.75 307.77-21.35 307.77-25.3L307.77-25.3Q307.77-28.4 309.45-30.75 311.12-33.1 314.1-34.38 317.07-35.65 320.77-35.65L320.77-35.65Z" opacity="1" transform="matrix(1,0,0,1,0,0)" fill="#7c4e29" class="undefined-text-0" data-fill-palette-color="primary" id="text-0"></path></svg></g></svg></g></svg></g></svg></g><g transform="matrix(1,0,0,1,155.6272348372438,0)"><svg viewBox="0 0 84.26553032551239 60.285292070006044" height="60.285292070006044" width="84.26553032551239"><g><svg xmlns="http://www.w3.org/2000/svg" xmlns:xlink="http://www.w3.org/1999/xlink" version="1.1" x="8" y="0" viewBox="10 15.351999282836914 80 70.64800262451172" enable-background="new 0 0 100 100" xml:space="preserve" height="60.285292070006044" width="68.26553032551239" class="icon-icon-0" data-fill-palette-color="accent" id="icon-0"><path d="M67.312 15.352c-6.842 0-13.039 3.193-17.312 8.657-4.272-5.463-10.47-8.657-17.312-8.657C21.414 15.352 10 24.505 10 42c0 18.193 19.553 31.938 37.88 43.392C48.528 85.797 49.265 86 50 86s1.472-0.203 2.12-0.608C70.447 73.938 90 60.193 90 42 90 24.505 78.586 15.352 67.312 15.352zM50 77.28C37.752 69.579 18 56.417 18 42c0-12.813 7.614-18.648 14.688-18.648 5.976 0 11.06 3.788 13.598 10.134C46.894 35.004 48.364 36 50 36s3.106-0.996 3.714-2.515c2.538-6.346 7.622-10.134 13.598-10.134C74.386 23.352 82 29.187 82 42 82 56.417 62.248 69.579 50 77.28z" fill="#7c4e29" data-fill-palette-color="accent"></path></svg></g></svg></g><g><rect width="155.6272348372438" height="3.933856623223271" y="55.35143544678277" x="239.89276516275618" fill="#7c4e29" data-fill-palette-color="accent"></rect><rect width="155.6272348372438" height="3.933856623223271" y="55.35143544678277" x="0" fill="#7c4e29" data-fill-palette-color="accent"></rect><rect width="155.6272348372438" height="3.933856623223271" y="47.48372220033623" x="239.89276516275618" fill="#7c4e29" data-fill-palette-color="accent"></rect><rect width="155.6272348372438" height="3.933856623223271" y="47.48372220033623" x="0" fill="#7c4e29" data-fill-palette-color="accent"></rect></g></svg></g></svg><rect width="395.52" height="114.20512034838866" fill="none" stroke="none" visibility="hidden"></rect></g></svg></g></svg>